<svg width="41" height="40" viewBox="0 0 41 40" fill="none" xmlns="http://www.w3.org/2000/svg">
<g clip-path="url(#clip0_201_101)">
<path d="M5.82652 16.1258C5.27125 15.5705 4.26331 16.0205 4.22461 16.8404L3.95012 22.6675C3.91593 23.4091 4.49189 23.9851 5.23345 23.9509L11.0606 23.6764C11.8805 23.6377 12.3296 22.6288 11.7752 22.0745L5.82652 16.1258Z" fill="white"/>
<path d="M24.1 18.2002L22.3001 16.4003C19.3177 13.4179 14.4831 13.4179 11.5007 16.4003L7.00094 20.9" stroke="white" stroke-width="4" stroke-linecap="round" stroke-linejoin="round"/>
<path opacity="0.35" d="M36.776 23.1598L37.0504 17.3326C37.0846 16.5911 36.5087 16.0151 35.7671 16.0493L29.9399 16.3238C29.1201 16.3625 28.671 17.3713 29.2254 17.9257L30.3998 19.1001L27.7 21.8C25.7147 23.7853 22.4857 23.7853 20.5004 21.8L18.7005 20.0001C17.7069 19.0066 16.0942 19.0066 15.1007 20.0001C14.1071 20.9936 14.1071 22.6064 15.1007 23.5999L16.9006 25.3998C20.8702 29.3695 27.3301 29.3695 31.2998 25.3998L33.9996 22.6999L35.1741 23.8744C35.7284 24.4287 36.7373 23.9797 36.776 23.1598Z" fill="white"/>
</g>
<defs>
<clipPath id="clip0_201_101">
<rect width="28.0006" height="28.0005" fill="white" transform="translate(20.5 0.200607) rotate(45)"/>
</clipPath>
</defs>
</svg>
