<svg width="470" height="164" viewBox="0 0 470 164" fill="none" xmlns="http://www.w3.org/2000/svg">
<path d="M196.958 57.5C209.278 57.5 215.438 60.91 215.438 67.73C215.438 71.1033 213.843 73.5783 210.653 75.155C212.816 75.705 214.631 76.6767 216.098 78.07C217.564 79.4633 218.298 81.48 218.298 84.12C218.298 88.19 216.611 91.2883 213.238 93.415C209.901 95.5417 205.446 96.605 199.873 96.605C196.719 96.605 193.823 96.1467 191.183 95.23C188.543 94.2767 186.434 92.8833 184.858 91.05C183.281 89.18 182.493 86.9067 182.493 84.23V57.5H196.958ZM196.243 81.205C196.279 82.8183 196.774 83.955 197.728 84.615C198.681 85.275 199.781 85.605 201.028 85.605C202.274 85.605 203.356 85.275 204.273 84.615C205.226 83.955 205.703 82.8183 205.703 81.205C205.703 79.775 205.134 78.7483 203.998 78.125C202.898 77.465 201.578 77.135 200.038 77.135H196.243V81.205ZM197.013 74.385C198.443 74.385 199.469 74.165 200.093 73.725C200.753 73.285 201.083 72.5883 201.083 71.635C201.083 70.425 200.771 69.6 200.148 69.16C199.561 68.72 198.479 68.5 196.903 68.5H196.243V74.385H197.013ZM238.032 85.495C239.498 85.495 240.452 84.6517 240.892 82.965C241.368 81.2783 241.607 78.9683 241.607 76.035C241.607 74.6783 241.387 72.6067 240.947 69.82C240.763 68.7567 240.598 67.73 240.452 66.74C240.342 65.7133 240.305 64.87 240.342 64.21C240.342 62.0467 241.002 60.305 242.322 58.985C243.678 57.6283 245.438 56.95 247.602 56.95C249.765 56.95 251.488 57.61 252.772 58.93C254.055 60.25 254.752 62.01 254.862 64.21L255.082 68.17C255.265 71.7267 255.357 74.55 255.357 76.64C255.357 84.1567 253.652 89.345 250.242 92.205C246.868 95.065 242.798 96.495 238.032 96.495C233.265 96.495 229.177 95.065 225.767 92.205C222.393 89.345 220.707 84.1567 220.707 76.64C220.707 74.55 220.798 71.7267 220.982 68.17L221.202 64.21C221.312 62.01 222.008 60.25 223.292 58.93C224.575 57.61 226.298 56.95 228.462 56.95C230.625 56.95 232.367 57.6283 233.687 58.985C235.043 60.305 235.722 62.0467 235.722 64.21C235.758 64.87 235.703 65.7133 235.557 66.74C235.447 67.73 235.3 68.7567 235.117 69.82C234.677 72.6067 234.457 74.6783 234.457 76.035C234.457 78.9683 234.677 81.2783 235.117 82.965C235.593 84.6517 236.565 85.495 238.032 85.495ZM280.977 64.21C281.05 62.1567 281.692 60.525 282.902 59.315C284.149 58.105 285.799 57.5 287.852 57.5C289.905 57.5 291.537 58.105 292.747 59.315C293.957 60.525 294.617 62.1567 294.727 64.21V89.84C294.617 91.8933 293.957 93.525 292.747 94.735C291.537 95.945 289.905 96.55 287.852 96.55C285.689 96.66 283.837 95.8717 282.297 94.185C280.757 92.4617 279.492 90.28 278.502 87.64C277.549 85 276.577 81.7367 275.587 77.85C275.477 77.3733 275.349 76.8967 275.202 76.42C274.285 72.68 273.46 69.7833 272.727 67.73V89.29C272.617 91.3433 271.957 92.975 270.747 94.185C269.537 95.395 267.905 96 265.852 96C263.799 96 262.149 95.395 260.902 94.185C259.692 92.975 259.05 91.3433 258.977 89.29V63.66C259.05 61.6067 259.692 59.975 260.902 58.765C262.149 57.555 263.799 56.95 265.852 56.95C268.052 56.95 269.94 57.995 271.517 60.085C273.094 62.1383 274.359 64.5767 275.312 67.4C276.302 70.1867 277.329 73.6517 278.392 77.795C279.052 80.325 279.547 82.1767 279.877 83.35C280.207 84.5233 280.574 85.4583 280.977 86.155V64.21Z" fill="white"/>
<path d="M148.147 126.64C148.147 123.76 149.607 121.5 152.527 119.86C155.487 118.22 160.067 117.4 166.267 117.4C170.987 117.4 175.107 117.94 178.627 119.02C182.187 120.1 184.187 122.02 184.627 124.78C184.667 124.98 184.687 125.26 184.687 125.62C184.687 127.14 184.087 128.38 182.887 129.34C181.727 130.3 180.307 130.78 178.627 130.78C174.787 130.78 172.067 130.58 170.467 130.18C168.387 129.66 166.727 129.4 165.487 129.4C163.687 129.4 162.787 129.92 162.787 130.96C162.787 131.68 163.907 132.18 166.147 132.46L169.747 132.76C172.907 132.96 175.547 133.24 177.667 133.6C179.827 133.96 181.707 134.7 183.307 135.82C184.907 136.94 185.707 138.56 185.707 140.68C185.707 144 183.907 146.28 180.307 147.52C176.747 148.76 172.127 149.38 166.447 149.38C161.647 149.38 157.187 148.88 153.067 147.88C148.987 146.88 146.947 144.82 146.947 141.7C146.947 139.9 147.487 138.46 148.567 137.38C149.687 136.26 151.147 135.7 152.947 135.7C153.947 135.7 154.967 135.8 156.007 136C157.087 136.16 158.127 136.34 159.127 136.54C161.167 136.98 162.467 137.24 163.027 137.32C164.707 137.6 166.067 137.74 167.107 137.74C168.747 137.74 169.567 137.44 169.567 136.84C169.567 136.52 169.267 136.26 168.667 136.06C168.107 135.82 167.267 135.62 166.147 135.46L163.687 135.16C160.687 134.8 158.127 134.4 156.007 133.96C153.927 133.48 152.087 132.66 150.487 131.5C148.927 130.34 148.147 128.72 148.147 126.64ZM206.853 148C204.253 148 201.633 147.4 198.993 146.2C196.353 145 194.153 143.2 192.393 140.8C190.633 138.4 189.753 135.52 189.753 132.16L189.693 125.32C189.693 122.96 190.413 121.06 191.853 119.62C193.333 118.14 195.253 117.4 197.613 117.4C199.973 117.4 201.873 118.12 203.313 119.56C204.793 121 205.533 122.92 205.533 125.32C205.533 126.32 205.433 127.58 205.233 129.1C204.993 131.34 204.873 133.36 204.873 135.16C204.873 137.24 204.993 138.9 205.233 140.14C205.513 141.38 206.053 142 206.853 142C207.653 142 208.173 141.28 208.413 139.84C208.693 138.36 208.833 136.5 208.833 134.26C208.833 133.02 208.713 131.36 208.473 129.28C208.273 127.68 208.173 126.36 208.173 125.32C208.173 122.92 208.893 121 210.333 119.56C211.813 118.12 213.733 117.4 216.093 117.4C218.453 117.4 220.353 118.14 221.793 119.62C223.273 121.06 224.013 122.96 224.013 125.32L223.953 134.26L223.893 137.14C223.893 138.66 224.013 139.86 224.253 140.74C224.533 141.58 225.033 142 225.753 142C226.553 142 227.073 141.38 227.313 140.14C227.593 138.9 227.733 137.24 227.733 135.16C227.733 133.36 227.613 131.34 227.373 129.1C227.173 127.58 227.073 126.32 227.073 125.32C227.073 122.92 227.793 121 229.233 119.56C230.713 118.12 232.633 117.4 234.993 117.4C237.353 117.4 239.253 118.14 240.693 119.62C242.173 121.06 242.913 122.96 242.913 125.32L242.853 132.16C242.853 135.52 241.973 138.4 240.213 140.8C238.453 143.2 236.253 145 233.613 146.2C230.973 147.4 228.353 148 225.753 148C224.193 148 222.593 147.78 220.953 147.34C219.313 146.9 217.773 146.24 216.333 145.36C214.893 146.24 213.333 146.9 211.653 147.34C210.013 147.78 208.413 148 206.853 148ZM270.82 145.42C267.46 147.62 263.14 148.72 257.86 148.72C254.14 148.72 251.16 148.08 248.92 146.8C246.68 145.52 245.56 143.46 245.56 140.62C245.56 137.58 246.68 135.36 248.92 133.96C251.16 132.52 254.24 131.8 258.16 131.8C262.44 131.8 266.26 132.3 269.62 133.3C269.62 131.9 269.22 130.9 268.42 130.3C267.62 129.7 266.38 129.4 264.7 129.4C263.74 129.4 262.42 129.54 260.74 129.82C259.94 129.9 259.1 130 258.22 130.12C257.38 130.2 256.66 130.24 256.06 130.24C254.18 130.24 252.7 129.68 251.62 128.56C250.58 127.4 250.06 125.9 250.06 124.06C250.06 121.34 251.34 119.56 253.9 118.72C256.5 117.84 259.56 117.4 263.08 117.4H265.06C269.18 117.4 272.7 118.02 275.62 119.26C278.58 120.46 280.82 122.14 282.34 124.3C283.86 126.42 284.62 128.86 284.62 131.62V140.68C284.62 143.08 283.96 145 282.64 146.44C281.32 147.88 279.48 148.6 277.12 148.6C275.72 148.6 274.48 148.32 273.4 147.76C272.32 147.2 271.46 146.42 270.82 145.42ZM261.52 136.78C261.52 137.3 261.74 137.72 262.18 138.04C262.62 138.32 263.28 138.42 264.16 138.34C266.48 138.14 268.3 137.56 269.62 136.6V136.54C268.38 136.1 266.84 135.7 265 135.34L263.68 135.22C262.24 135.22 261.52 135.74 261.52 136.78ZM289.948 125.44C289.948 123.04 290.608 121.12 291.928 119.68C293.248 118.24 295.088 117.52 297.448 117.52C298.648 117.52 299.748 117.78 300.748 118.3C301.788 118.82 302.668 119.56 303.388 120.52L303.808 121.18C307.048 118.7 310.368 117.46 313.768 117.46C317.048 117.46 319.828 118.12 322.108 119.44C324.428 120.72 326.168 122.48 327.328 124.72C328.488 126.92 329.068 129.4 329.068 132.16C329.068 136.04 328.308 139.16 326.788 141.52C325.268 143.88 323.368 145.56 321.088 146.56C318.848 147.52 316.528 148 314.128 148C312.608 148 311.048 147.82 309.448 147.46C307.848 147.06 306.348 146.54 304.948 145.9V155.2C304.948 157.6 304.288 159.52 302.968 160.96C301.648 162.4 299.808 163.12 297.448 163.12C295.088 163.12 293.248 162.4 291.928 160.96C290.608 159.52 289.948 157.6 289.948 155.2V125.44ZM304.948 136.54C305.868 137.26 307.068 137.62 308.548 137.62C310.468 137.62 311.888 136.88 312.808 135.4C313.768 133.92 314.248 131.92 314.248 129.4C314.248 126.88 313.728 125.08 312.688 124C311.648 122.88 310.448 122.32 309.088 122.32C307.208 122.32 305.828 122.86 304.948 123.94V136.54Z" fill="url(#paint0_linear_206_812)"/>
<g filter="url(#filter0_d_206_812)">
<ellipse cx="234.5" cy="-86" rx="175.5" ry="86" fill="#009B6B"/>
</g>
<defs>
<filter id="filter0_d_206_812" x="-41" y="-260" width="551" height="372" filterUnits="userSpaceOnUse" color-interpolation-filters="sRGB">
<feFlood flood-opacity="0" result="BackgroundImageFix"/>
<feColorMatrix in="SourceAlpha" type="matrix" values="0 0 0 0 0 0 0 0 0 0 0 0 0 0 0 0 0 0 127 0" result="hardAlpha"/>
<feMorphology radius="25" operator="dilate" in="SourceAlpha" result="effect1_dropShadow_206_812"/>
<feOffset dy="12"/>
<feGaussianBlur stdDeviation="37.5"/>
<feComposite in2="hardAlpha" operator="out"/>
<feColorMatrix type="matrix" values="0 0 0 0 0 0 0 0 0 0.607843 0 0 0 0 0.419608 0 0 0 1 0"/>
<feBlend mode="normal" in2="BackgroundImageFix" result="effect1_dropShadow_206_812"/>
<feBlend mode="normal" in="SourceGraphic" in2="effect1_dropShadow_206_812" result="shape"/>
</filter>
<linearGradient id="paint0_linear_206_812" x1="256" y1="103.5" x2="256" y2="174" gradientUnits="userSpaceOnUse">
<stop offset="0.254973" stop-color="white"/>
<stop offset="0.93" stop-color="#027352"/>
</linearGradient>
</defs>
</svg>
